<svg id="GRAPHICS" xmlns="http://www.w3.org/2000/svg" xmlns:xlink="http://www.w3.org/1999/xlink" width="208"
     height="208" viewBox="0 0 208 208">
    <defs>
        <linearGradient id="linear-gradient" x1="94.855" y1="105.776" x2="94.855" y2="60.312"
                        gradientUnits="userSpaceOnUse">
            <stop offset="0.002" stop-color="#f5b453"/>
            <stop offset="0.295" stop-color="#fed494"/>
        </linearGradient>
        <linearGradient id="linear-gradient-2" x1="78.418" y1="193.452" x2="112.154" y2="135.018"
                        gradientUnits="userSpaceOnUse">
            <stop offset="0.002" stop-color="#f5b453"/>
            <stop offset="0.581" stop-color="#fed494"/>
        </linearGradient>
        <radialGradient id="radial-gradient" cx="798.044" cy="19.099" r="19.648"
                        gradientTransform="matrix(0.998, 0.068, -0.069, 1.006, -705.89, 6.156)"
                        gradientUnits="userSpaceOnUse">
            <stop offset="0.338" stop-color="#797673"/>
            <stop offset="0.513" stop-color="#979592"/>
            <stop offset="0.701" stop-color="#b1afac"/>
            <stop offset="0.869" stop-color="#c1bebc"/>
            <stop offset="1" stop-color="#c6c4c2"/>
        </radialGradient>
    </defs>
    <path d="M160.186,160.189c47.814-4.7,55.373-91.2,32.895-121.085C134.5-38.8,117.875,35.729,61.6,11.563,27.3-3.165-14.425,45.607,35.921,81.1c27.62,19.471-.037,15.689-20.584,30.538-20.179,14.584-3.556,36.577,24.728,44.777C70.105,165.126,128.148,163.34,160.186,160.189Z"
          style="fill:#b4d7f9;opacity:0.25"/>
    <path d="M131.66,97.539l-15.992-34.5a3.728,3.728,0,0,0-3.563-2L78.427,64.848l-.466-.8L76.632,61.75a3.135,3.135,0,0,0-2.824-1.424l-4.48.507-9.9,1.12A1.6,1.6,0,0,0,58.1,64.464l3.27,6.231,15.324,33.063a3.6,3.6,0,0,0,1.77,1.668,3.427,3.427,0,0,0,1.793.333l49.618-5.615a3.308,3.308,0,0,0,1.677-.747A1.769,1.769,0,0,0,131.66,97.539Z"
          style="fill:url(#linear-gradient)"/>
    <path d="M26.524,163.491l132.442-27.927a1.773,1.773,0,0,1,1.772,2.814l-13.131,17.109Z" style="fill:#fde3ba"/>
    <polygon points="148.272 192.305 125.481 186.911 136.007 172.485 148.272 192.305" style="fill:#f4b353"/>
    <polygon points="147.607 155.487 148.272 192.305 136.007 172.485 26.524 163.491 147.607 155.487"
             style="fill:url(#linear-gradient-2)"/>
    <path d="M136.007,172.485l-10.526,14.426-12.793,17.535a4.739,4.739,0,0,1-6.043,1.4L26.524,163.491Z"
          style="fill:#fde3ba"/>
    <path d="M146.512,90.119c2.017.629,4.081,1.324,6.134,2.063a1.831,1.831,0,0,1-1.24,3.445c-2-.722-4.018-1.4-5.985-2.013-2.9-.906-4.7-1.359-4.715-1.363A1.831,1.831,0,0,1,141.6,88.7C141.672,88.718,143.5,89.178,146.512,90.119Zm18.478,7.156a1.835,1.835,0,0,1,.235.091,113.306,113.306,0,0,1,12,6.5,1.831,1.831,0,0,1-1.946,3.1,109.436,109.436,0,0,0-11.613-6.284,1.83,1.83,0,0,1,1.321-3.405Zm22.537,14.447a1.839,1.839,0,0,1,.691.4,47.153,47.153,0,0,1,8.876,10.717,1.831,1.831,0,0,1-3.157,1.855,43.5,43.5,0,0,0-8.194-9.874,1.831,1.831,0,0,1,1.784-3.1Zm13.387,22.747a1.828,1.828,0,0,1,1.252,1.391,25.6,25.6,0,0,1-.477,12.732q-.238.766-.525,1.5a1.831,1.831,0,1,1-3.41-1.334c.159-.408.307-.825.44-1.253a22,22,0,0,0,.381-10.927,1.83,1.83,0,0,1,2.339-2.105ZM191.8,158.078a1.831,1.831,0,0,1,.559,3.206,39.7,39.7,0,0,1-12.611,6.3,1.831,1.831,0,0,1-.925-3.543,36.577,36.577,0,0,0,11.325-5.671A1.826,1.826,0,0,1,191.8,158.078Zm-21.786,8.139a1.831,1.831,0,0,1-.6,3.2,39.7,39.7,0,0,1-14.021,1.455,1.83,1.83,0,0,1,.382-3.641,36.6,36.6,0,0,0,12.6-1.324A1.83,1.83,0,0,1,170.011,166.217Z"
          style="fill:#c6c4c2"/>
    <path d="M145.751,15.688c.042-.254.077-.507.12-.761-.043.253-.082.507-.123.76Z" style="fill:none"/>
    <path d="M146.58,15.771l-.062-.007q3.211,4.179,6.52,8.36a370.5,370.5,0,0,0-3.548,42.728,1.428,1.428,0,0,1-1.606,1.4q-18.34-1.791-36.653-3.585a1.636,1.636,0,0,1-.7-.243,1.7,1.7,0,0,0,1.41,1.087l36.652,3.585a1.429,1.429,0,0,0,1.607-1.4,370.533,370.533,0,0,1,3.547-42.728Q150.1,20.368,146.58,15.771Z"
          style="fill:#e1dfdd"/>
    <path d="M145.748,15.687q-.559,3.38-1.057,6.76c.33-2.253.688-4.506,1.06-6.759Z" style="fill:#e1dfdd"/>
    <path d="M147.884,68.249a1.428,1.428,0,0,0,1.606-1.4,370.5,370.5,0,0,1,3.548-42.728l-7.643-.763a.79.79,0,0,1-.7-.914q.495-3.381,1.057-6.76c.041-.253.08-.507.123-.76q-11.45-1.145-22.887-2.29l-6.21-.621a1.709,1.709,0,0,0-1.815,1.4q-.155.886-.3,1.773a372.783,372.783,0,0,0-4.937,47.766,1.664,1.664,0,0,0,.813,1.463,1.636,1.636,0,0,0,.7.243Q129.543,66.458,147.884,68.249Zm-1.661-10.481q-16-1.475-31.976-2.949c.03-.5.063-.993.1-1.489q15.969,1.475,31.96,2.949Q146.261,57.023,146.223,57.768Zm.752-5.851q-15.965-1.548-31.9-3.1c.04-.5.079-.994.121-1.49l31.888,3.1Q147.025,51.173,146.975,51.917Zm.431-5.7q-15.937-1.476-31.856-2.954c.046-.5.094-.993.143-1.491q15.91,1.479,31.84,2.954Q147.469,45.476,147.406,46.22Zm.513-5.628q-15.909-1.477-31.8-2.956.081-.745.166-1.491,15.882,1.479,31.783,2.956C148.018,39.6,147.969,40.1,147.919,40.592ZM117.867,29.457q.48-3.711,1.034-7.421a1.417,1.417,0,0,1,1.518-1.2l7.388.737a1.263,1.263,0,0,1,1.121,1.459q-.543,3.71-1.009,7.42a1.374,1.374,0,0,1-1.486,1.2l-7.414-.738A1.288,1.288,0,0,1,117.867,29.457Zm29.488,2.4c-.062.5-.122,1-.181,1.491l-16.222-1.445q.091-.747.187-1.493Z"
          style="fill:#fff"/>
    <path d="M144.691,22.447a.79.79,0,0,0,.7.914l7.643.763q-3.312-4.182-6.52-8.36c-.215-.278-.433-.558-.647-.837-.043.254-.078.507-.12.761C145.379,17.941,145.021,20.194,144.691,22.447Z"
          style="fill:#c6c4c2"/>
    <path d="M119.019,30.915l7.414.738a1.374,1.374,0,0,0,1.486-1.2q.466-3.709,1.009-7.42a1.263,1.263,0,0,0-1.121-1.459l-7.388-.737a1.417,1.417,0,0,0-1.518,1.2q-.553,3.709-1.034,7.421A1.288,1.288,0,0,0,119.019,30.915Z"
          style="fill:#c6c4c2"/>
    <path d="M115.55,43.266q15.918,1.479,31.856,2.954.061-.744.127-1.491-15.93-1.474-31.84-2.954C115.644,42.273,115.6,42.769,115.55,43.266Z"
          style="fill:#c6c4c2"/>
    <path d="M116.121,37.636q15.89,1.479,31.8,2.956c.05-.5.1-.995.151-1.491q-15.9-1.479-31.783-2.956Q116.2,36.891,116.121,37.636Z"
          style="fill:#c6c4c2"/>
    <path d="M115.07,48.82q15.942,1.55,31.905,3.1.05-.745.1-1.49l-31.888-3.1C115.149,47.826,115.11,48.323,115.07,48.82Z"
          style="fill:#c6c4c2"/>
    <path d="M114.247,54.819q15.978,1.476,31.976,2.949.037-.744.08-1.489-15.99-1.473-31.96-2.949C114.31,53.826,114.277,54.323,114.247,54.819Z"
          style="fill:#c6c4c2"/>
    <path d="M130.952,31.908l16.222,1.445c.059-.5.119-.994.181-1.491l-16.216-1.447Q131.044,31.161,130.952,31.908Z"
          style="fill:#c6c4c2"/>
    <path d="M120.953,79.32a249.65,249.65,0,0,0,2.43-43.37,2.726,2.726,0,0,0-1.3-2.2,2.643,2.643,0,0,1,.434,1.354,249.667,249.667,0,0,1-2.429,43.371,2.627,2.627,0,0,1-2.756,2.18q-21.322-1.491-42.683-2.991a2.3,2.3,0,0,1-.9-.247,2.163,2.163,0,0,0,1.767,1.088q21.36,1.5,42.683,2.991A2.626,2.626,0,0,0,120.953,79.32Z"
          style="fill:#e1dfdd"/>
    <path d="M74.646,77.669q21.361,1.5,42.683,2.991a2.627,2.627,0,0,0,2.756-2.18,249.667,249.667,0,0,0,2.429-43.371,2.717,2.717,0,0,0-2.441-2.58L78.237,29.683a2.166,2.166,0,0,0-2.323,2.255,248.568,248.568,0,0,1-3.279,43.225,2.1,2.1,0,0,0,1.113,2.259A2.3,2.3,0,0,0,74.646,77.669Zm1.712-3.7.009-.063q.685-4.431,1.2-8.9A249.772,249.772,0,0,0,79.26,33.75l39.87,2.614q.189,7.3-.05,14.555a248.388,248.388,0,0,1-2.16,25.78Q96.658,75.337,76.358,73.966Z"
          style="fill:#fff"/>
    <path d="M96.509,66.542c5.829-4.109,9.29-10.062,13.773-13.35l-9.766-.662a5.19,5.19,0,0,1-4.062-2.493,5.414,5.414,0,0,1-.795-3.015,4.888,4.888,0,0,1,5.125-4.84,5.873,5.873,0,0,1,5.3-2.566,6.867,6.867,0,0,1,6.1,5.29,4.405,4.405,0,0,1,3.748,4.458,4.127,4.127,0,0,1-.347,1.542,11.436,11.436,0,0,1,2.456-.095c.367.025.711.063,1.043.108q.231-7.251.05-14.555L79.26,33.75A249.772,249.772,0,0,1,77.569,65c4.881-2.613,8.415-4.671,11.513-4.461C92,60.745,94,63.39,96.509,66.542ZM84.757,56.375a2.068,2.068,0,0,1-1.909-2.226,2.122,2.122,0,0,1,.708-1.434,2.026,2.026,0,0,1,1.5-.514l2.018.137a3.622,3.622,0,0,1,3.257-1.6,3.739,3.739,0,0,1,3.456,3.97c0,.047-.006.088-.013.135a.209.209,0,0,1,0,.05,2.09,2.09,0,0,1-2.214,1.946l-4.533-.309Q85.891,56.454,84.757,56.375Z"
          style="fill:#e1dfdd"/>
    <path d="M96.509,66.542c-2.513-3.152-4.511-5.8-7.427-6-3.1-.21-6.632,1.848-11.513,4.461q-.523,4.467-1.2,8.9c4.327-.911,13.545-3.141,18.968-6.575C95.738,67.076,96.127,66.812,96.509,66.542Z"
          style="fill:#f2f2f2"/>
    <path d="M96.509,66.542c-2.513-3.152-4.511-5.8-7.427-6-3.1-.21-6.632,1.848-11.513,4.461q-.523,4.467-1.2,8.9c4.327-.911,13.545-3.141,18.968-6.575C95.738,67.076,96.127,66.812,96.509,66.542Z"
          style="fill:url(#radial-gradient)"/>
    <path d="M115.928,49.364a4.405,4.405,0,0,0-3.748-4.458,6.867,6.867,0,0,0-6.1-5.29,5.873,5.873,0,0,0-5.3,2.566,4.888,4.888,0,0,0-5.125,4.84,5.414,5.414,0,0,0,.795,3.015,5.19,5.19,0,0,0,4.062,2.493l9.766.662a11.75,11.75,0,0,1,5.3-2.286A4.127,4.127,0,0,0,115.928,49.364Z"
          style="fill:#fff"/>
    <path d="M93.061,56.325a2.092,2.092,0,0,0,.709-1.433.209.209,0,0,0,0-.05c.007-.047.01-.088.013-.135a3.739,3.739,0,0,0-3.456-3.97,3.622,3.622,0,0,0-3.257,1.6L85.052,52.2a2.026,2.026,0,0,0-1.5.514,2.122,2.122,0,0,0-.708,1.434,2.068,2.068,0,0,0,1.909,2.226q1.134.078,2.266.154l4.533.309A2.054,2.054,0,0,0,93.061,56.325Z"
          style="fill:#fff"/>
    <path d="M119.08,50.919c-.332-.045-.676-.083-1.043-.108a11.436,11.436,0,0,0-2.456.095,11.75,11.75,0,0,0-5.3,2.286c-4.483,3.288-7.944,9.241-13.773,13.35-.382.27-.771.534-1.174.786-5.423,3.434-14.641,5.664-18.968,6.575l-.009.063q20.3,1.37,40.562,2.733A248.388,248.388,0,0,0,119.08,50.919Z"
          style="fill:#c6c4c2"/>
    <path d="M136.652,61.422,116,63.758,86.7,67.075a3.568,3.568,0,0,0-2.938,2.764L77.851,103.6a1.827,1.827,0,0,0,.615,1.827,3.431,3.431,0,0,0,1.792.333l49.619-5.615a3.309,3.309,0,0,0,1.676-.747,3.446,3.446,0,0,0,1.262-2.018l5.907-33.759A1.78,1.78,0,0,0,136.652,61.422Z"
          style="fill:#fce39c"/>
</svg>