<svg id="GRAPHICS" xmlns="http://www.w3.org/2000/svg" xmlns:xlink="http://www.w3.org/1999/xlink" width="208"
     height="208" viewBox="0 0 208 208">
    <defs>
        <radialGradient id="radial-gradient" cx="795.872" cy="-34.38" r="28.576"
                        gradientTransform="matrix(0.984, -0.176, 0.178, 0.992, -701.145, 258.267)"
                        gradientUnits="userSpaceOnUse">
            <stop offset="0.338" stop-color="#797673"/>
            <stop offset="0.513" stop-color="#979592"/>
            <stop offset="0.701" stop-color="#b1afac"/>
            <stop offset="0.869" stop-color="#c1bebc"/>
            <stop offset="1" stop-color="#c6c4c2"/>
        </radialGradient>
        <linearGradient id="linear-gradient" x1="-131.655" y1="376.681" x2="-175.845" y2="285.033"
                        gradientTransform="translate(263.822 -169.877) rotate(5.61)" gradientUnits="userSpaceOnUse">
            <stop offset="0.002" stop-color="#f5b453"/>
            <stop offset="0.295" stop-color="#fed494"/>
        </linearGradient>
    </defs>
    <path d="M150.127,192.54s85.6-47.916,48.465-73.7C163.474,94.45,219.258,73.41,195.977,43.19c-43.184-56.056-69.869-8.681-124.782-7.226-83.687,2.218-81.124,61.39-27.984,91.523,20.058,11.373-13.123,22.253-35.975,33.89-23.055,11.741,30.581,28.087,37.756,32.82Z"
          style="fill:#b4d7f9;opacity:0.25"/>
    <path d="M112.55,105.046l-1.294-1.294a1.616,1.616,0,0,0-2.285,0l-2.551,2.459-.017-12.3a1.615,1.615,0,0,0-1.639-1.592l-1.83.026a1.616,1.616,0,0,0-1.592,1.64l0,12.427-2.549-2.548a1.616,1.616,0,0,0-2.285,0l-1.294,1.294a1.616,1.616,0,0,0,0,2.285l7.379,7.379a1.616,1.616,0,0,0,2.285,0l7.677-7.486A1.617,1.617,0,0,0,112.55,105.046Z"
          style="fill:#c6c4c2"/>
    <path d="M121.127,72.14a363.147,363.147,0,0,0-11.888-62.048,3.959,3.959,0,0,0-2.613-2.636,3.841,3.841,0,0,1,1.091,1.757,363.128,363.128,0,0,1,11.888,62.048,3.818,3.818,0,0,1-3.117,4.049Q85.879,80.736,55.212,86.163a3.372,3.372,0,0,1-1.354-.031,3.145,3.145,0,0,0,2.876.91Q87.4,81.617,118.01,76.189A3.818,3.818,0,0,0,121.127,72.14Z"
          style="fill:#e1dfdd"/>
    <path d="M55.212,86.163Q85.88,80.738,116.488,75.31a3.818,3.818,0,0,0,3.117-4.049A363.128,363.128,0,0,0,107.717,9.213a3.954,3.954,0,0,0-4.356-2.778L43.332,17.194a3.15,3.15,0,0,0-2.481,4A361.473,361.473,0,0,1,51.49,83.337a3.059,3.059,0,0,0,2.368,2.8A3.372,3.372,0,0,0,55.212,86.163Zm1.108-5.829c0-.031-.007-.061-.01-.092q-.6-6.494-1.447-12.98A363.09,363.09,0,0,0,46.212,22.57q28.614-5.2,57.174-10.392,2.844,10.238,5.069,20.553a360.9,360.9,0,0,1,6.056,37.135Q85.444,75.1,56.32,80.334Z"
          style="fill:#fff"/>
    <path d="M82.127,62.745c6.774-7.857,9.555-17.477,14.719-23.7q-7,1.258-14.014,2.515a7.546,7.546,0,0,1-6.61-2.083A7.866,7.866,0,0,1,74.036,35.5a7.109,7.109,0,0,1,5.52-8.638,8.548,8.548,0,0,1,6.568-5.491A9.988,9.988,0,0,1,96.6,26.685a6.407,6.407,0,0,1,6.863,4.966,6.029,6.029,0,0,1,.054,2.3,16.7,16.7,0,0,1,3.432-1c.526-.094,1.025-.162,1.509-.216q-2.234-10.311-5.069-20.553Q74.826,17.37,46.212,22.57a363.09,363.09,0,0,1,8.651,44.692C60.826,61.85,65.086,57.7,69.53,56.9,73.717,56.158,77.47,59.184,82.127,62.745ZM61.957,52.55a3.007,3.007,0,0,1-3.478-2.466,3.078,3.078,0,0,1,.491-2.273,2.947,2.947,0,0,1,1.93-1.254l2.894-.519a5.27,5.27,0,0,1,4.031-3.409A5.436,5.436,0,0,1,74.1,47.01c.013.067.023.126.03.194a.312.312,0,0,1,.018.07,3.064,3.064,0,0,1-.5,2.273A2.985,2.985,0,0,1,71.713,50.8l-6.5,1.165Q63.585,52.261,61.957,52.55Z"
          style="fill:#e1dfdd"/>
    <path d="M82.127,62.745c-4.657-3.561-8.41-6.587-12.6-5.844-4.444.8-8.7,4.949-14.667,10.361q.838,6.486,1.447,12.98c5.783-2.813,18-9.215,24.439-15.974C81.229,63.77,81.684,63.259,82.127,62.745Z"
          style="fill:#f2f2f2"/>
    <path d="M82.127,62.745c-4.657-3.561-8.41-6.587-12.6-5.844-4.444.8-8.7,4.949-14.667,10.361q.838,6.486,1.447,12.98c5.783-2.813,18-9.215,24.439-15.974C81.229,63.77,81.684,63.259,82.127,62.745Z"
          style="fill:url(#radial-gradient)"/>
    <path d="M103.46,31.651A6.407,6.407,0,0,0,96.6,26.685a9.988,9.988,0,0,0-10.473-5.31,8.548,8.548,0,0,0-6.568,5.491,7.109,7.109,0,0,0-5.52,8.638,7.866,7.866,0,0,0,2.186,3.973,7.546,7.546,0,0,0,6.61,2.083q7.01-1.256,14.014-2.515a17.09,17.09,0,0,1,6.668-5.1A6.029,6.029,0,0,0,103.46,31.651Z"
          style="fill:#fff"/>
    <path d="M73.655,49.547a3.064,3.064,0,0,0,.5-2.273.312.312,0,0,0-.018-.07c-.007-.068-.017-.127-.03-.194a5.436,5.436,0,0,0-6.277-4.381,5.27,5.27,0,0,0-4.031,3.409l-2.894.519a2.947,2.947,0,0,0-1.93,1.254,3.078,3.078,0,0,0-.491,2.273,3.007,3.007,0,0,0,3.478,2.466q1.628-.291,3.252-.583l6.5-1.165A2.985,2.985,0,0,0,73.655,49.547Z"
          style="fill:#fff"/>
    <path d="M108.455,32.731c-.484.054-.983.122-1.509.216a16.7,16.7,0,0,0-3.432,1,17.09,17.09,0,0,0-6.668,5.1c-5.164,6.223-7.945,15.843-14.719,23.7-.443.514-.9,1.025-1.378,1.523C74.311,71.027,62.093,77.429,56.31,80.242c0,.031.007.061.01.092Q85.444,75.1,114.511,69.866A360.9,360.9,0,0,0,108.455,32.731Z"
          style="fill:#c6c4c2"/>
    <path d="M164.619,16.039c.071-.368.131-.735.2-1.1-.071.367-.137.734-.207,1.1Z" style="fill:none"/>
    <path d="M165.821,16.191l-.09-.012q4.512,6.2,9.165,12.4a538.539,538.539,0,0,0-6.765,61.989,2.078,2.078,0,0,1-2.389,1.971q-26.6-3.294-53.153-6.591a2.4,2.4,0,0,1-1.01-.379,2.472,2.472,0,0,0,2.01,1.632q26.556,3.3,53.153,6.591a2.079,2.079,0,0,0,2.389-1.972A538.57,538.57,0,0,1,175.9,29.83Q170.771,23.007,165.821,16.191Z"
          style="fill:#e1dfdd"/>
    <path d="M164.614,16.038q-.939,4.891-1.791,9.788c.565-3.264,1.171-6.526,1.8-9.787Z" style="fill:#e1dfdd"/>
    <path d="M165.742,92.537a2.078,2.078,0,0,0,2.389-1.971A538.539,538.539,0,0,1,174.9,28.577l-11.083-1.4a1.149,1.149,0,0,1-.99-1.355q.847-4.9,1.791-9.788c.07-.367.136-.734.207-1.1q-16.6-2.094-33.189-4.19l-9.005-1.138a2.487,2.487,0,0,0-2.691,1.972q-.258,1.286-.508,2.568a541.745,541.745,0,0,0-8.975,69.26,2.484,2.484,0,0,0,2.136,2.537Q139.145,89.243,165.742,92.537Zm-2.02-15.3q-23.2-2.743-46.379-5.489c.063-.72.129-1.442.195-2.161q23.164,2.744,46.357,5.49Q163.805,76.155,163.722,77.235Zm1.313-8.478q-23.151-2.85-46.269-5.7c.076-.72.153-1.442.231-2.162q23.107,2.851,46.246,5.7Q165.135,67.677,165.035,68.757Zm.841-8.265Q142.76,57.744,119.672,55q.129-1.083.264-2.163,23.076,2.748,46.182,5.493Q166,59.411,165.876,60.492Zm.958-8.164q-23.074-2.747-46.12-5.493.147-1.082.3-2.163,23.034,2.748,46.1,5.494Q166.969,51.246,166.834,52.328Zm-43.273-17.32q.837-5.376,1.783-10.75a2.059,2.059,0,0,1,2.251-1.68l10.713,1.35a1.834,1.834,0,0,1,1.575,2.162q-.927,5.374-1.745,10.751a2,2,0,0,1-2.206,1.682l-10.751-1.352A1.871,1.871,0,0,1,123.561,35.008Zm42.781,4.606q-.162,1.082-.318,2.162l-23.532-2.712q.162-1.083.329-2.163Z"
          style="fill:#fff"/>
    <path d="M162.823,25.826a1.149,1.149,0,0,0,.99,1.355l11.083,1.4q-4.659-6.2-9.165-12.4c-.3-.414-.609-.828-.91-1.242-.071.367-.131.734-.2,1.1C163.994,19.3,163.388,22.562,162.823,25.826Z"
          style="fill:#c6c4c2"/>
    <path d="M125.181,37.171l10.751,1.352a2,2,0,0,0,2.206-1.682q.817-5.376,1.745-10.751a1.834,1.834,0,0,0-1.575-2.162L127.6,22.578a2.059,2.059,0,0,0-2.251,1.68q-.947,5.373-1.783,10.75A1.871,1.871,0,0,0,125.181,37.171Z"
          style="fill:#c6c4c2"/>
    <path d="M119.672,55q23.088,2.746,46.2,5.493.119-1.081.242-2.163-23.106-2.744-46.182-5.493Q119.8,53.918,119.672,55Z"
          style="fill:#c6c4c2"/>
    <path d="M120.714,46.835q23.046,2.746,46.12,5.493.137-1.08.275-2.162-23.062-2.748-46.1-5.494Q120.861,45.754,120.714,46.835Z"
          style="fill:#c6c4c2"/>
    <path d="M118.766,63.055q23.12,2.852,46.269,5.7.1-1.08.208-2.162Q142.1,63.744,119,60.893C118.919,61.613,118.842,62.335,118.766,63.055Z"
          style="fill:#c6c4c2"/>
    <path d="M117.343,71.746q23.175,2.747,46.379,5.489.084-1.078.173-2.16-23.193-2.745-46.357-5.49C117.472,70.3,117.406,71.026,117.343,71.746Z"
          style="fill:#c6c4c2"/>
    <path d="M142.492,39.064l23.532,2.712q.156-1.08.318-2.162L142.821,36.9Q142.655,37.981,142.492,39.064Z"
          style="fill:#c6c4c2"/>
    <path d="M153.877,191.878l-30.184-65.124a7.036,7.036,0,0,0-6.726-3.777L53.4,130.171l-.879-1.519-2.509-4.328a5.918,5.918,0,0,0-5.329-2.687l-8.457.957-18.679,2.113c-2.606.3-3.731,2.416-2.512,4.74L21.2,141.208l28.925,62.409a6.8,6.8,0,0,0,3.341,3.149,6.48,6.48,0,0,0,3.385.627l93.656-10.6a6.246,6.246,0,0,0,3.164-1.41A3.333,3.333,0,0,0,153.877,191.878Z"
          style="fill:url(#linear-gradient)"/>
    <path d="M163.3,123.705l-38.976,4.41-55.317,6.26a6.736,6.736,0,0,0-5.547,5.218L52.311,203.317a3.448,3.448,0,0,0,1.16,3.449,6.475,6.475,0,0,0,3.384.627l93.656-10.6a6.238,6.238,0,0,0,3.164-1.41,6.51,6.51,0,0,0,2.383-3.808l11.15-63.724A3.36,3.36,0,0,0,163.3,123.705Z"
          style="fill:#fce39c"/>
</svg>